<svg width="131px" height="91px" viewBox="0 0 131 91" version="1.1" xmlns="http://www.w3.org/2000/svg" xmlns:xlink="http://www.w3.org/1999/xlink"> <title>pullquote</title> <g id="pullquote" stroke="none" stroke-width="1" fill="none" fill-rule="evenodd"> <g id="quote-icon" fill="#C01534" fill-rule="nonzero"> <path d="M114.625,0 C114.625,0 102.49537,9.70666667 100.271605,29.5244444 C117.253086,29.5244444 131,43.2755556 131,60.2622222 C131,77.2488889 117.253086,91 100.271605,91 C83.8966049,91 70.3518519,77.8555556 69.5432099,61.6777778 L69.5432099,57.6333333 C70.1496914,32.3555556 89.3549383,5.25777778 114.625,0 Z M0,57.6333333 L0,61.6777778 C0.808641975,77.8555556 14.5555556,91 30.7283951,91 C47.7098765,91 61.4567901,77.2488889 61.4567901,60.2622222 C61.4567901,43.2755556 47.7098765,29.5244444 30.7283951,29.5244444 C32.9521605,9.70666667 45.0817901,0 45.0817901,0 C19.8117284,5.25777778 0.606481481,32.3555556 0,57.6333333 Z" id="Shape"></path> </g> </g> </svg>